  <svg
        xmlns="http://www.w3.org/2000/svg"
        xmlns:xlink="http://www.w3.org/1999/xlink"
        width="206.192"
        height="154.753"
        viewBox="0 0 206.192 154.753"
      >
        <defs>
          <clipPath id="clip-path">
            <rect
              id="Rectangle_419"
              data-name="Rectangle 419"
              width="206.192"
              height="154.753"
              fill="none"
            />
          </clipPath>
        </defs>
        <g id="Group_970" data-name="Group 970" clip-path="url(#clip-path)">
          <path
            id="Path_942"
            data-name="Path 942"
            d="M177.219,266.916q0,6.688-3,10.454t-9.427,3.766q-6.432,0-9.456-3.766t-3.027-10.454V242.687a1.092,1.092,0,0,1,.236-.711.81.81,0,0,1,.661-.289h.526a.809.809,0,0,1,.658.289,1.1,1.1,0,0,1,.239.711v24.229q0,5.74,2.314,8.9t7.851,3.16q5.527,0,7.818-3.16t2.292-8.9V242.687a1.091,1.091,0,0,1,.239-.711.8.8,0,0,1,.657-.289h.526a.808.808,0,0,1,.657.289,1.092,1.092,0,0,1,.239.711Z"
            transform="translate(-116.54 -184.932)"
            fill="#81b199"
          />
          <path
            id="Path_943"
            data-name="Path 943"
            d="M341.485,279.782a.705.705,0,0,1-.314.627,1.6,1.6,0,0,1-.679.26q-1.051.106-3.244.311t-5.81.2a14.618,14.618,0,0,1-4.758-.79,10.171,10.171,0,0,1-4.1-2.672,13.413,13.413,0,0,1-2.875-5,24.332,24.332,0,0,1-1.065-7.823l.006-6.906a24.312,24.312,0,0,1,1.081-7.82,13.415,13.415,0,0,1,2.884-4.993,10.183,10.183,0,0,1,4.108-2.666,14.688,14.688,0,0,1,4.76-.78q3.613,0,5.81.216c1.464.142,2.543.247,3.244.317a1.638,1.638,0,0,1,.678.262.709.709,0,0,1,.313.628v.629c0,.314-.1.506-.289.575a1.523,1.523,0,0,1-.7.052q-.734-.053-1.781-.158c-.7-.07-1.448-.124-2.248-.159s-1.642-.071-2.51-.108-1.712-.053-2.514-.054a11.027,11.027,0,0,0-4.107.753,8.526,8.526,0,0,0-3.349,2.431,11.851,11.851,0,0,0-2.256,4.339,22.785,22.785,0,0,0-.817,6.539l-.006,6.907a22.769,22.769,0,0,0,.8,6.54,11.86,11.86,0,0,0,2.247,4.345,8.5,8.5,0,0,0,3.344,2.436,11.035,11.035,0,0,0,4.1.763q1.2,0,2.514-.051c.869-.034,1.708-.068,2.511-.1s1.552-.077,2.248-.129,1.292-.112,1.781-.181a1.521,1.521,0,0,1,.7.052c.194.071.288.263.288.576Z"
            transform="translate(-243.811 -184.97)"
            fill="#9bdeda"
          />
          <path
            id="Path_944"
            data-name="Path 944"
            d="M460.922,279.85a1.47,1.47,0,0,1,0,.942q-.159.367-.734.366h-.627a.834.834,0,0,1-.839-.681l-4.38-14.182-15.068-.015-4.3,14.174a1.24,1.24,0,0,1-.34.47.749.749,0,0,1-.5.209h-.683a.707.707,0,0,1-.7-.368,1.314,1.314,0,0,1-.028-.941l10.76-35.409a3.71,3.71,0,0,1,1.232-1.882,3.783,3.783,0,0,1,4.291-.022,3.56,3.56,0,0,1,1.228,1.859Zm-12.837-34.855a1.856,1.856,0,0,0-.364-.734,1.044,1.044,0,0,0-.839-.315,1.08,1.08,0,0,0-.837.287,1.614,1.614,0,0,0-.369.706L439.9,263.978l13.868.013Z"
            transform="translate(-331.051 -185.06)"
            fill="#9bdeda"
          />
          <path
            id="Path_945"
            data-name="Path 945"
            d="M569.507,257.211q.008-6.643,2.992-10.382t9.368-3.732q6.389.006,9.39,3.75t3,10.387L594.23,281.3a1.083,1.083,0,0,1-.234.706.808.808,0,0,1-.657.286h-.522a.806.806,0,0,1-.653-.287,1.089,1.089,0,0,1-.236-.707l.023-24.067q.005-5.7-2.291-8.843t-7.8-3.146q-5.491,0-7.769,3.131t-2.285,8.838l-.024,24.068a1.081,1.081,0,0,1-.238.706.8.8,0,0,1-.654.286h-.521a.8.8,0,0,1-.653-.287,1.087,1.087,0,0,1-.237-.706Z"
            transform="translate(-435.753 -186.012)"
            fill="#9bdeda"
          />
          <path
            id="Path_946"
            data-name="Path 946"
            d="M337.43,212.382a51.86,51.86,0,1,1,36.67-15.189,51.52,51.52,0,0,1-36.67,15.189m0-103.014A51.155,51.155,0,1,0,373.6,124.35a50.82,50.82,0,0,0-36.172-14.983"
            transform="translate(-218.511 -83.146)"
            fill="#81b199"
          />
          <path
            id="Path_947"
            data-name="Path 947"
            d="M274.7,368.2a4.035,4.035,0,1,0,4.039-4.031A4.036,4.036,0,0,0,274.7,368.2"
            transform="translate(-210.196 -278.654)"
            fill="#9bdeda"
          />
        </g>
      </svg>