<svg xmlns="http://www.w3.org/2000/svg" width="128.877" height="99" viewBox="0 0 128.877 99">
  <g id="Layer_2" data-name="Layer 2" transform="translate(0.001 -0.002)">
    <g id="Layer_1" data-name="Layer 1" transform="translate(-0.001 0.002)">
      <path id="Path_57034" data-name="Path 57034" d="M23.778,157.084q0,6.384-2.865,9.979t-9,3.591q-6.139,0-9.026-3.586T0,157.084V133.957a1.047,1.047,0,0,1,.224-.672A.778.778,0,0,1,.855,133h.5a.773.773,0,0,1,.625.276,1.038,1.038,0,0,1,.224.672v23.138q0,5.476,2.21,8.5t7.493,3.015q5.274,0,7.464-3.015t2.188-8.5V133.957a1.047,1.047,0,0,1,.224-.672.773.773,0,0,1,.628-.287h.5a.773.773,0,0,1,.628.276,1.038,1.038,0,0,1,.224.672Z" transform="translate(0.001 -103.186)" fill="#81b199"></path>
      <path id="Path_57035" data-name="Path 57035" d="M188.139,169.386a.672.672,0,0,1-.3.6,1.542,1.542,0,0,1-.648.249q-1,.1-3.1.3c-1.4.132-3.246.2-5.545.195a14,14,0,0,1-4.541-.753,9.714,9.714,0,0,1-3.916-2.551,12.676,12.676,0,0,1-2.744-4.772,23.388,23.388,0,0,1-1.018-7.466V148.59a23.034,23.034,0,0,1,1.031-7.464,12.9,12.9,0,0,1,2.752-4.765,9.719,9.719,0,0,1,3.923-2.546,14.067,14.067,0,0,1,4.548-.744q3.45,0,5.548.206l3.1.3a1.569,1.569,0,0,1,.648.251.672.672,0,0,1,.3.6v.6c0,.3-.092.482-.276.549a1.462,1.462,0,0,1-.672.049q-.7-.049-1.7-.152c-.672-.067-1.383-.117-2.147-.15l-2.394-.105c-.834-.034-1.636-.049-2.4-.052a10.577,10.577,0,0,0-3.92.719,8.132,8.132,0,0,0-3.2,2.322,11.394,11.394,0,0,0-2.154,4.14,21.529,21.529,0,0,0-.78,6.242v6.592a21.913,21.913,0,0,0,.767,6.242,11.226,11.226,0,0,0,2.145,4.147,8.13,8.13,0,0,0,3.192,2.327,10.58,10.58,0,0,0,3.918.728c.767,0,1.569-.018,2.4-.049l2.4-.1c.762-.034,1.482-.074,2.145-.123s1.235-.108,1.7-.173a1.43,1.43,0,0,1,.672.049c.184.067.273.251.273.549Z" transform="translate(-129.048 -103.243)" fill="#9bdeda"></path>
      <path id="Path_57036" data-name="Path 57036" d="M307.323,169.468a1.4,1.4,0,0,1,0,.9q-.15.35-.7.35h-.6a.8.8,0,0,1-.8-.65l-4.18-13.536-14.383-.016-4.106,13.529a1.174,1.174,0,0,1-.323.448.717.717,0,0,1-.475.2H281.1a.672.672,0,0,1-.672-.35,1.26,1.26,0,0,1-.025-.9l10.27-33.8a3.532,3.532,0,0,1,1.174-1.793,3.611,3.611,0,0,1,4.1-.022,3.391,3.391,0,0,1,1.172,1.773ZM295.071,136.2a1.793,1.793,0,0,0-.347-.7,1,1,0,0,0-.791-.3,1.027,1.027,0,0,0-.8.276,1.536,1.536,0,0,0-.352.672l-5.512,18.174,13.238.011Z" transform="translate(-217.499 -103.346)" fill="#9bdeda"></path>
      <path id="Path_57037" data-name="Path 57037" d="M417.232,147.911q0-6.341,2.856-9.909t8.941-3.562q6.1,0,8.966,3.586t2.86,9.914l-.022,22.973a1.038,1.038,0,0,1-.224.672.771.771,0,0,1-.628.271h-.5a.767.767,0,0,1-.623-.273,1.026,1.026,0,0,1-.224-.672l.02-22.973q0-5.442-2.185-8.441t-7.442-3q-5.238,0-7.415,2.99t-2.181,8.435l-.022,22.959a1.029,1.029,0,0,1-.224.672.76.76,0,0,1-.623.273h-.5a.764.764,0,0,1-.623-.276,1.029,1.029,0,0,1-.224-.672Z" transform="translate(-323.701 -104.306)" fill="#9bdeda"></path>
      <path id="Path_57038" data-name="Path 57038" d="M182.8,99A49.5,49.5,0,1,1,217.8,84.506,49.5,49.5,0,0,1,182.8,99Zm0-98.328a48.828,48.828,0,1,0,34.529,14.3A48.83,48.83,0,0,0,182.8.674Z" transform="translate(-103.428 -0.002)" fill="#81b199"></path>
      <path id="Path_57039" data-name="Path 57039" d="M122.4,259.356a3.851,3.851,0,1,0,3.855-3.846,3.851,3.851,0,0,0-3.855,3.846" transform="translate(-94.964 -198.239)" fill="#9bdeda"></path>
    </g>
  </g>
</svg>